<?xml version="1.0" encoding="utf-8"?>
<svg xmlns="http://www.w3.org/2000/svg" xml:space="preserve" width="841.89" height="1559.061">
  <path fill="#d97707" d="M791.378 1373.974H62.944l220.763-612.477-112.163-314.424 151.463-307.6h208.306l151.463 307.6-112.162 314.424 220.764 612.477zm-707.083-15h685.731L554.679 761.523l111.838-313.515-144.538-293.534H332.341L187.804 448.008l111.838 313.515-.912 2.53-214.435 594.921z"/>
  <g fill="#d97707">
    <path d="M444.661 647.683H319.807v-35h89.854V432.974h124.855v35h-89.855z"/>
    <path d="M534.516 647.683h-35v-89.855H319.807V432.974h35v89.854h179.709z"/>
  </g>
  <path fill="#d97707" d="M427.161 247.739c-24.302 0-47.538-9.238-67.195-26.714-18.905-16.808-33.142-39.972-41.169-66.989l14.379-4.272c14.748 49.63 52.517 82.976 93.985 82.976 41.468 0 79.238-33.345 93.985-82.976l14.379 4.272c-8.028 27.017-22.264 50.181-41.169 66.989-19.657 17.476-42.893 26.714-67.195 26.714z"/>
  <g fill="#d97707">
    <circle cx="337.307" cy="314.231" r="16.667"/>
    <circle cx="427.161" cy="314.231" r="16.667"/>
    <circle cx="427.161" cy="192.069" r="16.667"/>
    <circle cx="517.016" cy="314.231" r="16.667"/>
  </g>
  <g fill="#d97707">
    <path d="m383.401 1201.078-49.283-5.456 49.283-5.457z"/>
    <path d="M428.486 1155.452c22.188 0 40.172 17.986 40.172 40.17s-17.983 40.17-40.172 40.17c-22.183 0-40.17-17.986-40.17-40.17s17.988-40.17 40.17-40.17m0-7.42c-12.712 0-24.663 4.948-33.649 13.936-8.99 8.991-13.94 20.942-13.94 33.654 0 12.713 4.95 24.662 13.94 33.655 8.986 8.985 20.938 13.936 33.649 13.936s24.667-4.95 33.654-13.936c8.992-8.993 13.941-20.942 13.941-33.655 0-12.712-4.949-24.663-13.941-33.654-8.987-8.988-20.942-13.936-33.654-13.936z"/>
    <path d="m423.031 1151.048 5.46-49.284 5.455 49.284zm-10.545 2.612-7.398-49.027 17.943 46.223zm32.005 0 7.4-49.027-17.945 46.223zm-10.549 86.537-5.456 49.282-5.455-49.282zm10.549-2.613 7.4 49.027-17.949-46.223zm-32.005 0-7.398 49.027 17.943-46.223zm-26.471-25.962-49.028 7.399 46.224-17.943zm0-32.001-49.028-7.403 46.224 17.947zm14.789 51.377-38.703 30.994 30.988-38.71zm9.307 5.607-29.436 39.902 19.995-45.375zm-22.63-22.629-39.902 29.435 45.375-19.993zm68.671 17.022 38.703 30.994-30.988-38.71zm-9.307 5.607 29.435 39.902-19.993-45.375zm22.63-22.629 39.901 29.435-45.374-19.993zm-76.386-45.527-30.988-38.707 38.703 30.993zm-5.608 9.308-39.902-29.436 45.375 19.994zm22.63-22.629-29.436-39.902 19.995 45.37zm53.756 12.833 30.988-38.708-38.703 30.989zm5.608 9.306 39.901-29.435-45.374 19.995zm-22.63-22.633 29.435-39.899-19.993 45.371zm25.707 35.531 49.282 5.457-49.282 5.456zm-2.614-10.544 49.027-7.403-46.223 17.947zm0 32.001 49.027 7.403-46.223-17.947z"/>
    <path d="M428.486 1107.303c48.777 0 88.319 39.542 88.319 88.319 0 48.776-39.542 88.319-88.319 88.319-48.771 0-88.314-39.543-88.314-88.319 0-48.777 39.543-88.319 88.314-88.319m0-11.133c-13.417 0-26.445 2.631-38.712 7.822-11.842 5.007-22.478 12.177-31.607 21.306-9.13 9.13-16.3 19.766-21.31 31.607-5.188 12.271-7.819 25.295-7.819 38.717s2.631 26.445 7.819 38.713c5.01 11.847 12.18 22.481 21.31 31.611 9.13 9.129 19.766 16.299 31.607 21.305 12.267 5.191 25.295 7.822 38.712 7.822 13.422 0 26.449-2.631 38.718-7.822 11.841-5.006 22.477-12.176 31.606-21.305 9.129-9.13 16.3-19.765 21.309-31.611 5.188-12.268 7.819-25.291 7.819-38.713s-2.631-26.446-7.819-38.712c-5.009-11.847-12.18-22.482-21.309-31.612-9.13-9.129-19.766-16.299-31.606-21.306-12.268-5.191-25.296-7.822-38.718-7.822z"/>
    <path d="M428.486 1107.303c48.777 0 88.319 39.542 88.319 88.319 0 48.776-39.542 88.319-88.319 88.319-48.776 0-88.314-39.543-88.314-88.319 0-48.777 39.538-88.319 88.314-88.319m0-11.133c-13.422 0-26.445 2.631-38.712 7.822-11.842 5.007-22.478 12.177-31.607 21.306-9.13 9.13-16.3 19.766-21.31 31.607-5.188 12.271-7.819 25.295-7.819 38.717s2.631 26.445 7.819 38.713c5.01 11.847 12.18 22.481 21.31 31.611 9.13 9.129 19.766 16.299 31.607 21.305 12.267 5.191 25.29 7.822 38.712 7.822s26.446-2.631 38.718-7.822c11.841-5.006 22.477-12.176 31.606-21.305 9.129-9.13 16.3-19.765 21.309-31.611 5.188-12.268 7.819-25.291 7.819-38.713s-2.631-26.446-7.819-38.712c-5.009-11.847-12.18-22.482-21.309-31.612-9.13-9.129-19.766-16.299-31.606-21.306-12.271-5.191-25.296-7.822-38.718-7.822z"/>
    <path d="m456.191 1160.221 38.707-30.991-30.987 38.709z"/>
  </g>
  <g fill="#d97707">
    <path d="M422.606 1107.986c0-2.868-2.322-5.192-5.192-5.192-2.868 0-5.196 2.324-5.196 5.192s2.328 5.197 5.196 5.197c2.87.001 5.192-2.329 5.192-5.197z"/>
    <path d="M417.414 1114.854c-3.786 0-6.866-3.081-6.866-6.867 0-3.781 3.08-6.862 6.866-6.862 3.787 0 6.862 3.081 6.862 6.862 0 3.785-3.075 6.867-6.862 6.867zm0-10.39c-1.942 0-3.526 1.58-3.526 3.522 0 1.947 1.584 3.526 3.526 3.526s3.521-1.579 3.521-3.526c.001-1.942-1.579-3.522-3.521-3.522zm-17.723 9.23c0-2.869-2.324-5.197-5.196-5.197-2.869 0-5.192 2.328-5.192 5.197 0 2.868 2.323 5.191 5.192 5.191 2.872.001 5.196-2.322 5.196-5.191z"/>
    <path d="M394.495 1120.556c-3.781 0-6.862-3.076-6.862-6.861 0-3.786 3.081-6.867 6.862-6.867 3.786 0 6.866 3.081 6.866 6.867 0 3.784-3.08 6.861-6.866 6.861zm0-10.389c-1.942 0-3.522 1.583-3.522 3.527 0 1.942 1.58 3.521 3.522 3.521 1.947 0 3.526-1.579 3.526-3.521 0-1.944-1.579-3.527-3.526-3.527zm-15.771 15.819c0-2.869-2.323-5.192-5.191-5.192-2.869 0-5.197 2.323-5.197 5.192 0 2.868 2.328 5.195 5.197 5.195 2.867.001 5.191-2.327 5.191-5.195z"/>
    <path d="M373.532 1132.852c-3.787 0-6.867-3.08-6.867-6.865 0-3.786 3.08-6.862 6.867-6.862 3.78 0 6.861 3.076 6.861 6.862.001 3.784-3.08 6.865-6.861 6.865zm0-10.388c-1.948 0-3.527 1.58-3.527 3.522s1.579 3.525 3.527 3.525c1.941 0 3.522-1.583 3.522-3.525s-1.58-3.522-3.522-3.522z"/>
    <circle cx="358.699" cy="1141.407" r="5.195"/>
    <path d="M358.699 1148.272c-1.835 0-3.557-.717-4.854-2.011-1.298-1.299-2.012-3.021-2.012-4.855 0-1.834.714-3.556 2.012-4.854 1.298-1.293 3.02-2.012 4.854-2.012s3.557.719 4.854 2.012c1.294 1.299 2.008 3.021 2.008 4.854 0 1.835-.714 3.557-2.008 4.855-1.297 1.295-3.02 2.011-4.854 2.011zm0-10.392c-.943 0-1.826.369-2.492 1.035s-1.034 1.549-1.034 2.491c0 .943.368 1.827 1.034 2.493s1.549 1.034 2.492 1.034c.938 0 1.826-.368 2.492-1.034s1.029-1.55 1.029-2.493c0-.942-.363-1.825-1.029-2.491s-1.553-1.035-2.492-1.035zm-8.498 20.095c-2.029-2.03-5.317-2.03-7.347 0-2.029 2.024-2.029 5.313 0 7.343 2.029 2.029 5.317 2.029 7.347 0 2.029-2.031 2.029-5.319 0-7.343z"/>
    <path d="M346.527 1168.51c-1.834 0-3.556-.714-4.854-2.012-2.674-2.674-2.674-7.031 0-9.706 1.299-1.297 3.021-2.011 4.854-2.011 1.835 0 3.558.714 4.855 2.011 2.674 2.675 2.674 7.032 0 9.706-1.297 1.298-3.02 2.012-4.855 2.012zm0-10.389c-.938 0-1.825.364-2.492 1.03-1.371 1.375-1.371 3.613 0 4.984.667.666 1.554 1.034 2.492 1.034.943 0 1.826-.368 2.492-1.034 1.377-1.371 1.377-3.609 0-4.984-.665-.666-1.548-1.03-2.492-1.03zm-2.458 23.37c-2.028-2.03-5.316-2.03-7.347 0-2.028 2.029-2.028 5.316 0 7.346 2.03 2.029 5.318 2.029 7.347 0 2.026-2.029 2.026-5.316 0-7.346z"/>
    <path d="M340.396 1192.03c-1.835 0-3.557-.714-4.854-2.012-2.678-2.679-2.678-7.031 0-9.709 1.294-1.295 3.02-2.008 4.854-2.008 1.83 0 3.557.713 4.851 2.008 1.298 1.297 2.012 3.021 2.012 4.854 0 1.835-.714 3.557-2.012 4.854-1.294 1.299-3.02 2.013-4.851 2.013zm0-10.387c-.943 0-1.83.363-2.492 1.029-1.376 1.376-1.376 3.608 0 4.984.666.667 1.549 1.034 2.492 1.034.939 0 1.826-.367 2.492-1.034.666-.666 1.03-1.549 1.03-2.492 0-.938-.364-1.827-1.03-2.492-.665-.666-1.552-1.029-2.492-1.029zm.217 19.435c-2.869 0-5.197 2.323-5.197 5.192 0 2.872 2.328 5.197 5.197 5.197 2.868 0 5.191-2.325 5.191-5.197.001-2.864-2.323-5.192-5.191-5.192z"/>
    <path d="M340.613 1213.137c-3.786 0-6.867-3.081-6.867-6.866 0-3.781 3.081-6.863 6.867-6.863 1.83 0 3.557.715 4.851 2.013 1.298 1.294 2.012 3.021 2.012 4.851 0 3.784-3.081 6.865-6.863 6.865zm0-10.389c-1.947 0-3.526 1.579-3.526 3.522 0 1.946 1.579 3.525 3.526 3.525 1.942 0 3.521-1.579 3.521-3.525 0-.939-.363-1.826-1.029-2.491-.666-.663-1.553-1.031-2.492-1.031z"/>
    <circle cx="346.315" cy="1229.188" r="5.194"/>
    <path d="M346.315 1236.052c-3.786 0-6.862-3.077-6.862-6.862 0-3.786 3.076-6.866 6.862-6.866s6.867 3.08 6.867 6.866c0 1.835-.714 3.557-2.012 4.854-1.297 1.294-3.02 2.008-4.855 2.008zm0-10.389c-1.942 0-3.521 1.584-3.521 3.526s1.579 3.522 3.521 3.522c.943 0 1.826-.363 2.492-1.03.667-.666 1.034-1.554 1.034-2.492.001-1.942-1.582-3.526-3.526-3.526zm12.298 19.298c-2.874 0-5.197 2.327-5.197 5.196s2.323 5.192 5.197 5.192c2.868 0 5.191-2.323 5.191-5.192s-2.323-5.196-5.191-5.196z"/>
    <path d="M358.613 1257.02c-3.787 0-6.867-3.075-6.867-6.862 0-3.786 3.08-6.866 6.867-6.866 3.781 0 6.861 3.08 6.861 6.866.001 3.78-3.079 6.862-6.861 6.862zm0-10.389c-1.948 0-3.527 1.584-3.527 3.526s1.579 3.521 3.527 3.521c1.942 0 3.521-1.579 3.521-3.521s-1.578-3.526-3.521-3.526zm135.68 7.139c2.03 2.025 5.318 2.029 7.348 0 2.029-2.028 2.029-5.317 0-7.346-2.029-2.03-5.317-2.03-7.348 0-2.029 2.028-2.029 5.317 0 7.346z"/>
    <path d="M497.967 1256.959c-1.835 0-3.556-.714-4.854-2.007-2.674-2.68-2.674-7.035 0-9.71 1.299-1.299 3.02-2.012 4.854-2.012 1.836 0 3.557.713 4.855 2.012 1.293 1.294 2.008 3.021 2.008 4.854s-.715 3.557-2.008 4.855c-1.299 1.294-3.019 2.008-4.855 2.008zm0-10.388c-.942 0-1.826.367-2.492 1.032-1.376 1.372-1.376 3.609 0 4.985.666.666 1.55 1.03 2.492 1.03.943 0 1.825-.364 2.492-1.03.666-.666 1.029-1.553 1.029-2.492 0-.943-.363-1.826-1.029-2.493-.667-.665-1.549-1.032-2.492-1.032zm8.498-13.043c2.029 2.03 5.318 2.03 7.348 0 2.023-2.024 2.023-5.316 0-7.346-2.029-2.025-5.318-2.025-7.348 0-2.029 2.03-2.029 5.322 0 7.346z"/>
    <path d="M510.139 1236.724c-1.835 0-3.563-.715-4.854-2.013-1.299-1.295-2.013-3.021-2.013-4.851 0-1.834.714-3.563 2.013-4.854 1.298-1.299 3.02-2.013 4.854-2.013 1.83 0 3.557.714 4.851 2.013 1.298 1.292 2.012 3.021 2.012 4.854 0 1.829-.714 3.556-2.012 4.851-1.295 1.298-3.021 2.013-4.851 2.013zm0-10.391c-.943 0-1.831.369-2.493 1.034-.665.662-1.033 1.55-1.033 2.493 0 .939.368 1.826 1.033 2.488.662.665 1.55 1.033 2.493 1.033.939 0 1.826-.368 2.491-1.03.666-.665 1.03-1.552 1.03-2.491 0-.943-.364-1.831-1.03-2.497-.665-.661-1.552-1.03-2.491-1.03zm2.457-16.319c2.029 2.025 5.317 2.028 7.347 0 2.03-2.03 2.03-5.318 0-7.347-2.029-2.03-5.317-2.03-7.347 0-2.029 2.028-2.029 5.316 0 7.347z"/>
    <path d="M516.27 1213.201c-1.835 0-3.557-.713-4.854-2.008-1.294-1.297-2.007-3.021-2.007-4.854s.713-3.556 2.007-4.854c1.298-1.297 3.02-2.012 4.854-2.012s3.557.715 4.854 2.012c1.298 1.299 2.013 3.021 2.013 4.854 0 1.831-.715 3.558-2.013 4.854-1.298 1.295-3.02 2.008-4.854 2.008zm0-10.388c-.939 0-1.826.369-2.492 1.035-.667.667-1.029 1.549-1.029 2.491 0 .939.362 1.827 1.029 2.493.666.667 1.553 1.029 2.492 1.029.943 0 1.826-.362 2.492-1.029.666-.666 1.034-1.554 1.034-2.493 0-.942-.368-1.824-1.034-2.491-.666-.666-1.549-1.035-2.492-1.035zm-.416-12.673c2.869.005 5.197-2.324 5.193-5.192.004-2.868-2.324-5.196-5.193-5.196-2.868.005-5.195 2.328-5.195 5.196s2.326 5.197 5.195 5.192z"/>
    <path d="M515.854 1191.81c-3.785 0-6.866-3.075-6.866-6.862 0-3.784 3.081-6.861 6.866-6.861 1.836 0 3.557.709 4.855 2.008 1.293 1.297 2.012 3.021 2.008 4.854.004 1.835-.71 3.558-2.008 4.854-1.299 1.294-3.02 2.007-4.855 2.007zm0-10.388c-1.942.004-3.525 1.584-3.525 3.525 0 1.942 1.583 3.522 3.525 3.522v1.67-1.67c.943 0 1.826-.364 2.492-1.029.668-.666 1.035-1.549 1.035-2.493 0-.943-.367-1.826-1.035-2.492-.666-.665-1.549-1.033-2.492-1.033z"/>
    <circle cx="510.147" cy="1162.03" r="5.194"/>
    <path d="M510.15 1168.896h-.003c-3.782 0-6.864-3.081-6.864-6.863 0-3.786 3.082-6.866 6.864-6.866 3.786 0 6.866 3.08 6.866 6.866 0 1.835-.714 3.558-2.012 4.855-1.293 1.294-3.015 2.008-4.851 2.008zm-.003-10.389c-1.943 0-3.521 1.578-3.521 3.525 0 1.943 1.578 3.522 3.521 3.522h.003c.939 0 1.827-.363 2.493-1.029.662-.667 1.03-1.555 1.03-2.493.001-1.941-1.579-3.525-3.526-3.525z"/>
    <circle cx="497.855" cy="1141.063" r="5.195"/>
    <path d="M497.855 1147.927c-3.787 0-6.862-3.08-6.862-6.862 0-3.785 3.075-6.866 6.862-6.866 3.785 0 6.865 3.081 6.865 6.866.001 3.786-3.079 6.862-6.865 6.862zm0-10.389c-1.943 0-3.523 1.584-3.523 3.526 0 1.944 1.58 3.523 3.523 3.523v1.67-1.67c1.941 0 3.525-1.579 3.525-3.523.001-1.942-1.583-3.526-3.525-3.526zm-11.406-7.575c2.028-2.025 2.028-5.314 0-7.343-2.029-2.029-5.317-2.029-7.347 0-2.03 2.028-2.03 5.317 0 7.343 2.03 2.032 5.318 2.032 7.347 0z"/>
    <path d="M482.775 1133.155c-1.834 0-3.557-.714-4.854-2.007-2.675-2.679-2.675-7.035 0-9.71 1.298-1.298 3.021-2.012 4.854-2.012 1.835 0 3.557.714 4.854 2.012 1.298 1.294 2.013 3.021 2.013 4.855 0 1.828-.715 3.557-2.013 4.854-1.297 1.294-3.019 2.008-4.854 2.008zm0-10.387c-.938 0-1.827.367-2.492 1.032-1.372 1.372-1.372 3.609 0 4.986.665.665 1.554 1.029 2.492 1.029.943 0 1.826-.364 2.492-1.029.667-.667 1.034-1.554 1.034-2.492 0-.943-.367-1.827-1.034-2.494-.665-.665-1.548-1.032-2.492-1.032z"/>
    <circle cx="462.539" cy="1114.122" r="5.196"/>
    <path d="M462.539 1120.985c-1.835 0-3.557-.716-4.854-2.008-1.298-1.299-2.013-3.021-2.013-4.855s.715-3.558 2.013-4.854c1.298-1.294 3.02-2.012 4.854-2.012s3.557.718 4.854 2.012c1.294 1.297 2.008 3.02 2.008 4.854s-.714 3.557-2.008 4.855c-1.297 1.293-3.02 2.008-4.854 2.008zm0-10.389c-.943 0-1.826.367-2.492 1.033-.666.667-1.034 1.55-1.034 2.493 0 .939.368 1.825 1.034 2.491.666.667 1.549 1.035 2.492 1.035.939 0 1.826-.368 2.492-1.035.666-.666 1.034-1.552 1.034-2.491 0-.943-.368-1.826-1.034-2.493-.666-.666-1.552-1.033-2.492-1.033zm-19.848 1.064c2.03-2.025 2.03-5.318 0-7.347-2.029-2.025-5.317-2.025-7.347.004-2.029 2.028-2.029 5.317 0 7.343 2.03 2.029 5.318 2.029 7.347 0z"/>
    <path d="M439.019 1114.854c-1.835 0-3.557-.714-4.855-2.013-2.674-2.674-2.674-7.031 0-9.705 1.299-1.298 3.021-2.012 4.855-2.012 1.834 0 3.557.714 4.854 2.012 2.673 2.674 2.673 7.031 0 9.705-1.298 1.299-3.02 2.013-4.854 2.013zm0-10.39c-.939 0-1.826.368-2.492 1.035-1.371 1.371-1.371 3.607 0 4.984.666.662 1.549 1.029 2.492 1.029.942 0 1.825-.367 2.492-1.029 1.375-1.377 1.375-3.613 0-4.989-.667-.662-1.55-1.03-2.492-1.03zm-16.438 178.832c0 2.869-2.328 5.196-5.197 5.196s-5.191-2.327-5.191-5.196c0-2.868 2.322-5.191 5.191-5.191s5.197 2.323 5.197 5.191z"/>
    <path d="M417.384 1290.163c-3.786 0-6.862-3.08-6.862-6.867 0-3.785 3.076-6.862 6.862-6.862 3.787 0 6.867 3.077 6.867 6.862 0 3.787-3.08 6.867-6.867 6.867zm0-10.389c-1.942 0-3.522 1.579-3.522 3.521 0 1.948 1.58 3.526 3.522 3.526 1.943 0 3.527-1.578 3.527-3.526 0-1.941-1.584-3.521-3.527-3.521z"/>
    <circle cx="394.467" cy="1277.593" r="5.194"/>
    <path d="M394.469 1284.456c-3.785 0-6.866-3.076-6.866-6.863 0-3.785 3.081-6.865 6.866-6.865 3.786 0 6.863 3.08 6.863 6.865 0 3.787-3.077 6.863-6.863 6.863zm0-10.389c-1.943 0-3.525 1.583-3.525 3.525 0 1.944 1.582 3.523 3.525 3.523s3.521-1.579 3.521-3.523c0-1.942-1.578-3.525-3.521-3.525zm-15.295-8.918c0 2.869-2.323 5.193-5.192 5.193s-5.196-2.324-5.196-5.193c0-2.873 2.327-5.195 5.196-5.195s5.192 2.322 5.192 5.195z"/>
    <path d="M373.981 1272.013c-3.786 0-6.866-3.082-6.866-6.863 0-3.787 3.08-6.867 6.866-6.867 3.781 0 6.863 3.08 6.863 6.867.001 3.781-3.081 6.863-6.863 6.863zm0-10.39c-1.946 0-3.526 1.58-3.526 3.526 0 1.942 1.58 3.521 3.526 3.521 1.942 0 3.522-1.579 3.522-3.521.001-1.946-1.579-3.526-3.522-3.526zm92.201 11.868c2.03 2.029 2.03 5.318 0 7.348-2.029 2.024-5.316 2.024-7.347 0-2.028-2.029-2.028-5.318 0-7.348 2.03-2.028 5.317-2.028 7.347 0z"/>
    <path d="M462.509 1284.028c-1.835 0-3.557-.715-4.854-2.008-1.294-1.299-2.008-3.024-2.008-4.854 0-1.836.714-3.557 2.008-4.854 1.298-1.299 3.02-2.013 4.854-2.013s3.557.714 4.854 2.013c1.298 1.298 2.012 3.019 2.012 4.854 0 1.83-.714 3.556-2.012 4.854-1.298 1.293-3.02 2.008-4.854 2.008zm0-10.389c-.939 0-1.826.367-2.492 1.035-.667.666-1.03 1.549-1.03 2.492 0 .938.363 1.824 1.03 2.492.666.666 1.553 1.029 2.492 1.029.943 0 1.826-.368 2.492-1.029.666-.668 1.033-1.554 1.033-2.492 0-.943-.367-1.826-1.033-2.492-.666-.668-1.549-1.035-2.492-1.035zm24.312-12.162c2.029 2.028 2.029 5.316 0 7.342-2.029 2.03-5.318 2.03-7.348 0-2.028-2.025-2.028-5.313 0-7.342 2.03-2.03 5.319-2.03 7.348 0z"/>
    <path d="M483.147 1272.013c-1.835 0-3.557-.714-4.854-2.013-1.298-1.294-2.013-3.021-2.013-4.851 0-1.834.715-3.561 2.013-4.854 1.298-1.298 3.02-2.013 4.854-2.013s3.557.715 4.854 2.013c1.295 1.294 2.013 3.021 2.013 4.854 0 1.83-.718 3.557-2.013 4.851-1.297 1.299-3.019 2.013-4.854 2.013zm0-10.39c-.943 0-1.826.369-2.492 1.034-.666.667-1.034 1.549-1.034 2.492 0 .939.368 1.826 1.034 2.492.666.662 1.549 1.029 2.492 1.029.939 0 1.826-.367 2.493-1.029.665-.666 1.033-1.553 1.033-2.492 0-.943-.368-1.83-1.033-2.492-.666-.665-1.549-1.034-2.493-1.034zm-40.485 18c2.029 2.029 2.029 5.318 0 7.347-2.025 2.03-5.318 2.03-7.348 0-2.024-2.028-2.024-5.317 0-7.347 2.03-2.03 5.323-2.03 7.348 0z"/>
    <path d="M438.992 1290.163c-1.835 0-3.562-.714-4.854-2.011-2.679-2.68-2.679-7.032-.005-9.711 1.298-1.293 3.024-2.008 4.855-2.008 1.834 0 3.561.715 4.854 2.008 2.679 2.679 2.679 7.036 0 9.711-1.293 1.297-3.02 2.011-4.85 2.011zm-.004-10.389c-.939 0-1.826.363-2.492 1.029-1.372 1.376-1.372 3.614 0 4.985.666.666 1.553 1.033 2.496 1.033.939 0 1.826-.367 2.488-1.033 1.376-1.371 1.376-3.609 0-4.985-.667-.665-1.548-1.029-2.492-1.029z"/>
  </g>
  <g fill="#d97707">
    <path d="M395.551 1182.529h2.505s-.463-2.64 3.063-2.64v15.84h5.197v-23.563c0 .001-10.765 1.173-10.765 10.363zm0 26.403h2.505s-.463 2.64 3.063 2.64v-15.842h5.197v23.564s-10.765-1.173-10.765-10.362z"/>
    <path d="M398.338 1194.337h11.69v2.787h-11.69zm43.821 1.02h10.822v2.782h-10.822z"/>
    <path d="M440.083 1178.959h5.383v37.427h-5.383zm-16.161 15.763v-5.204s.229-8.94 6.764-8.94c6.536 0 5.637 9.875 5.637 11.207h-1.916s0-8.14-2.592-8.14c-2.593 0-6.876 11.908 1.466 16.563 8.338 4.656 3.086 15.862 3.086 15.862h-1.96s1.678-10.405-3.444-10.405c-5.075 0-3.461 21.607 5.006 22.011.083.003.16.003.16.003v2.536s-12.206-.134-12.206-10.142-.787-14.561 4.283-17.213c-.001 0-4.284-2.932-4.284-8.138z"/>
    <circle cx="430.531" cy="1174.546" r="3.464"/>
    <path d="M422.304 1171.422s6.806-13.132 14.846 0h5.01s-.371-10.453-12.616-10.453c-12.25 0-12.622 10.453-12.622 10.453h5.382zm19.855 23.935h-7.45s-1.605-.306-1.917-2.289h-2.263s.904 5.071 4.18 5.071h12.863"/>
    <path d="M434.406 1191.104h1.916v2.83h-1.916zm10.934-11.504s-.312-5.054-3.838-5.054h-4.141v3.635s3.872.373 3.872 5.192m-1.15 29.925s-3.15 5.845-7.447 6.662c0 0 1.857 7.659 12.491 7.659v-2.185s-4.914-.343-5.871-3.182c0 0 6.21-2.664 6.21-5.914s-5.383-3.04-5.383-3.04z"/>
  </g>
  <path fill="#d97707" d="M408.575 1166.468v59.265c1.69 1.168 3.491 2.198 5.378 3.067v-65.396c-1.887.87-3.687 1.896-5.378 3.064zm52.853 13.196c-1.464-2.781-3.275-5.353-5.384-7.649v48.664c2.108-2.293 3.92-4.864 5.384-7.649v-33.366zm-13.363-14.784v61.701c1.918-1.156 3.717-2.484 5.383-3.964v-53.774c-1.666-1.48-3.465-2.808-5.383-3.963zm-27.647 5.599v59.156h-2.782v-59.156h-.715v59.218c1.735.648 3.535 1.168 5.383 1.549v-60.767h-1.886z"/>
  <path fill="#d97707" d="M417.636 1170.479h2.782v59.156h-2.782z"/>
  <g fill="#d97707">
    <path d="M348.768 917.42h15v159.659h-15zm47.486-88.718h15v231.623h-15zm47.505-.19h15v231.629h-15zm47.548 119.731h15v128.836h-15z"/>
    <path d="M427.521 1323.551c-69.617 0-126.254-56.64-126.254-126.259V917.42c0-17.233 14.019-31.254 31.25-31.254 5.947 0 11.512 1.67 16.25 4.566v-60.151c0-17.234 14.021-31.255 31.254-31.255 5.951 0 11.519 1.672 16.258 4.571.376-16.908 14.247-30.549 31.242-30.549 17.231 0 31.251 14.02 31.251 31.253v26.016c4.739-2.897 10.305-4.567 16.254-4.567 17.231 0 31.251 14.019 31.251 31.249v80.108c8.332-7.813 19.479-12.657 31.736-12.823.522-.062 1.056-.073 1.588-.039 3.407 0 11.915.755 17.31 7.74 4.37 5.657 5.289 13.49 2.732 23.281-5.867 22.45-5.867 33.815-5.867 48.205v193.521c0 69.619-56.637 126.259-126.255 126.259zm-95.003-422.385c-8.96 0-16.25 7.291-16.25 16.254v279.872c0 61.349 49.908 111.259 111.254 111.259s111.255-49.91 111.255-111.259v-193.521c0-14.854 0-27.683 6.354-51.997 1.265-4.846 1.232-8.607-.091-10.32-.972-1.258-3.087-1.791-4.83-1.891l-.039.016h-1.502c-17.86 0-32.392 14.531-32.392 32.394h-15V857.299c0-8.96-7.29-16.249-16.251-16.249-8.963 0-16.254 7.289-16.254 16.249h-15v-52.697c0-8.962-7.29-16.253-16.251-16.253-8.96 0-16.25 7.291-16.25 16.253v25.979h-15c0-8.963-7.29-16.255-16.25-16.255-8.962 0-16.254 7.292-16.254 16.255v86.839h-15c.001-8.963-7.289-16.254-16.249-16.254z"/>
  </g>

</svg>