<svg width="100" height="100" viewBox="0 0 100 100" fill="none" xmlns="http://www.w3.org/2000/svg">
  <path 
    d="M10 90
       C 10 70, 15 60, 25 50
       C 35 40, 45 35, 60 35
       C 50 35, 40 30, 35 20
       C 30 10, 35 5, 40 5
       C 45 5, 50 10, 50 15
       C 50 20, 45 25, 40 25
       C 50 25, 60 30, 70 40
       C 80 50, 85 60, 85 70
       C 85 75, 80 80, 75 80
       C 70 80, 65 75, 65 70
       C 65 65, 70 60, 75 60
       C 65 60, 55 65, 45 75
       C 35 85, 30 90, 30 90"
    stroke="#C4A484"
    strokeWidth="2"
    fill="none"
  />
</svg>

